# xmcd CD database file
#
# Track frame offsets:
#	150
#	18126
#	30211
#	41034
#	50390
#	62153
#	76620
#	88027
#	101650
#	113929
#
# Disc length: 1626 seconds
#
# Revision: 0
# Processed by: cddbd v1.5.2PL0 Copyright (c) Steve Scherf et al.
# Submitted via: CDex 1.50
#
DISCID=6d06580a
DTITLE=Willie Nelson - American Classics - Texas Superstar
DYEAR=2006
DGENRE=Country
TTITLE0=crazy
TTITLE1=ten with a two
TTITLE2=touch me
TTITLE3=one step beyond
TTITLE4=I hope sp
TTITLE5=will you remember mine
TTITLE6=is there something on your mind
TTITLE7=you'll always have someone
TTITLE8=shelter of your arms
TTITLE9=things to remember
EXTD=YEAR: 2006
EXTT0=
EXTT1=
EXTT2=
EXTT3=
EXTT4=
EXTT5=
EXTT6=
EXTT7=
EXTT8=
EXTT9=
PLAYORDER=
